<svg viewBox="0 0 330 390" version="1.1" xmlns="http://www.w3.org/2000/svg" desc="Created with imagetracer.js version 1.2.6" ><path fill="rgb(255,255,255)" stroke="rgb(255,255,255)" stroke-width="0" opacity="0" d="M 0 0 L 0.5 0 L 329.5 0 L 330 0 L 330 0.5 L 330 389.5 L 330 390 L 329.5 390 L 0.5 390 L 0 390 L 0 389.5 L 0 0.5 L 0 0 Z M 249 16 L 248 17 L 76 17 L 74 19 L 69 30 L 67 32 L 67 34 Q 66 34 66 36 L 64 38 L 59 49 L 57 51 L 51 64 L 49 66 L 43 79 L 41 81 L 35 94 L 33 96 L 33 97 L 29 104 Q 28 105 30 105 L 143 105 L 145 103 L 150 92 L 152 90 L 157 79 L 158 78 Q 158 76 158 76 L 79 76 L 78 76 L 78 74 L 84 63 L 84 62 L 86 60 L 86 58 L 88 55 L 88 54 L 90 52 L 92 47 L 94 45 L 208 45 L 209 47 L 205 54 L 205 55 L 203 57 L 203 59 Q 202 59 202 61 L 200 63 L 195 74 L 193 76 L 189 85 L 188 86 L 188 87 L 186 89 L 181 100 L 179 102 Q 179 103 178 104 L 178 106 L 176 108 L 171 119 L 169 121 L 163 134 L 161 136 L 155 149 L 153 151 L 147 164 L 145 166 L 139 179 L 137 181 L 132 192 L 130 194 L 124 207 L 122 209 L 116 222 L 115 223 L 115 224 L 113 226 L 107 239 L 105 241 L 100 252 L 98 254 L 98 255 L 93 264 L 95 267 L 95 268 L 97 270 L 97 272 Q 98 272 98 274 L 100 276 L 105 287 L 107 289 L 112 300 L 114 302 L 119 313 L 121 315 L 125 324 L 126 325 L 126 326 L 128 328 L 128 330 Q 129 330 129 332 L 131 334 L 136 345 L 138 347 L 141 354 L 142 355 Q 141 357 144 356 L 145 355 L 147 350 L 149 348 L 149 346 L 151 344 L 156 333 L 158 331 L 162 322 L 163 321 L 163 320 L 165 318 L 171 305 L 173 303 L 179 290 L 180 289 L 180 288 L 181 287 L 181 286 L 183 284 L 188 273 L 190 271 L 196 258 L 198 256 L 204 243 L 205 242 L 205 241 L 206 240 L 206 239 L 208 237 L 212 228 L 214 226 L 219 215 L 221 213 L 225 204 L 226 203 L 226 202 L 228 200 L 234 187 L 235 186 L 235 185 L 236 184 L 236 183 L 237 182 L 237 181 L 239 179 L 243 170 L 245 168 L 251 155 L 253 153 L 255 148 L 256 147 L 262 134 L 264 132 L 269 121 L 271 119 L 276 108 L 278 106 L 284 93 L 285 92 L 285 91 L 287 89 L 290 82 L 291 81 L 291 78 L 288 73 L 288 72 L 286 70 L 281 59 L 279 57 L 279 55 Q 278 54 278 53 Q 276 51 276 49 L 272 54 L 268 63 L 266 65 L 260 78 L 259 79 L 259 80 L 258 81 L 258 82 L 257 83 L 257 84 L 255 86 L 251 95 L 249 97 L 243 110 L 241 112 L 236 123 L 234 125 L 234 127 Q 233 127 233 129 L 231 131 L 227 140 L 225 142 L 219 155 L 217 157 L 211 170 L 210 171 L 210 172 L 208 174 L 202 187 L 201 188 L 201 189 L 199 191 L 194 202 L 192 204 L 187 215 L 185 217 L 181 226 L 180 227 L 180 228 L 178 230 L 178 232 Q 177 232 177 234 L 175 236 L 170 247 L 168 249 L 165 256 L 163 259 L 163 260 L 161 262 L 155 275 L 154 276 L 154 277 L 153 278 L 153 279 L 151 281 L 145 294 L 144 295 L 142 294 L 141 291 L 139 289 L 133 276 L 131 274 L 129 269 L 126 264 L 133 251 L 133 250 L 135 248 L 139 239 L 141 237 Q 141 235 142 235 L 142 233 L 144 231 L 150 218 L 152 216 L 156 207 L 157 206 L 157 205 L 159 203 L 164 192 L 166 190 L 172 177 L 173 176 L 173 175 L 174 174 L 174 173 L 176 171 L 181 160 L 183 158 L 189 145 L 191 143 L 196 132 L 198 130 L 198 128 L 200 125 L 200 124 L 202 122 L 207 111 L 209 109 L 211 104 L 212 103 L 212 102 L 214 100 L 219 89 L 221 87 L 227 74 L 228 73 L 228 72 L 229 71 L 229 70 L 230 69 L 230 68 L 232 66 L 237 55 L 238 54 L 238 53 L 240 51 L 245 40 L 247 38 L 249 33 L 250 32 L 252 27 L 254 25 L 254 23 Q 255 22 255 21 L 257 19 Q 258 16 256 17 Q 255 15 254 17 L 250 17 L 249 16 Z " /><path fill="rgb(216,49,69)" stroke="rgb(216,49,69)" stroke-width="0" opacity="1" d="M 248.5 16 L 249.5 17 L 253.5 17 Q 254.5 15 255.5 17 Q 257.8 16.3 257 18.5 L 255 20.5 Q 255.2 22.2 254 22.5 L 254 24.5 L 252 26.5 L 250 31.5 L 249 32.5 L 247 37.5 L 245 39.5 L 240 50.5 L 238 52.5 L 238 53.5 L 237 54.5 L 232 65.5 L 230 67.5 L 230 68.5 L 229 69.5 L 229 70.5 L 228 71.5 L 228 72.5 L 227 73.5 L 221 86.5 L 219 88.5 L 214 99.5 L 212 101.5 L 212 102.5 L 211 103.5 L 209 108.5 L 207 110.5 L 202 121.5 L 200 123.5 L 200 124.5 L 198 127.5 L 198 129.5 L 196 131.5 L 191 142.5 L 189 144.5 L 183 157.5 L 181 159.5 L 176 170.5 L 174 172.5 L 174 173.5 L 173 174.5 L 173 175.5 L 172 176.5 L 166 189.5 L 164 191.5 L 159 202.5 L 157 204.5 L 157 205.5 L 156 206.5 L 152 215.5 L 150 217.5 L 144 230.5 L 142 232.5 L 142 234.5 Q 140.8 234.8 141 236.5 L 139 238.5 L 135 247.5 L 133 249.5 L 133 250.5 L 126 263.5 L 129 268.5 L 131 273.5 L 133 275.5 L 139 288.5 L 141 290.5 L 142 293.5 L 143.5 295 L 145 293.5 L 151 280.5 L 153 278.5 L 153 277.5 L 154 276.5 L 154 275.5 L 155 274.5 L 161 261.5 L 163 259.5 L 163 258.5 L 165 255.5 L 168 248.5 L 170 246.5 L 175 235.5 L 177 233.5 Q 176.7 231.7 178 231.5 L 178 229.5 L 180 227.5 L 180 226.5 L 181 225.5 L 185 216.5 L 187 214.5 L 192 203.5 L 194 201.5 L 199 190.5 L 201 188.5 L 201 187.5 L 202 186.5 L 208 173.5 L 210 171.5 L 210 170.5 L 211 169.5 L 217 156.5 L 219 154.5 L 225 141.5 L 227 139.5 L 231 130.5 L 233 128.5 Q 232.7 126.7 234 126.5 L 234 124.5 L 236 122.5 L 241 111.5 L 243 109.5 L 249 96.5 L 251 94.5 L 255 85.5 L 257 83.5 L 257 82.5 L 258 81.5 L 258 80.5 L 259 79.5 L 259 78.5 L 260 77.5 L 266 64.5 L 268 62.5 L 272 53.5 L 275.5 49 Q 276 51.5 278 52.5 Q 277.7 54.2 279 54.5 L 279 56.5 L 281 58.5 L 286 69.5 L 288 71.5 L 288 72.5 L 291 77.5 L 291 80.5 L 290 81.5 L 287 88.5 L 285 90.5 L 285 91.5 L 284 92.5 L 278 105.5 L 276 107.5 L 271 118.5 L 269 120.5 L 264 131.5 L 262 133.5 L 256 146.5 L 255 147.5 L 253 152.5 L 251 154.5 L 245 167.5 L 243 169.5 L 239 178.5 L 237 180.5 L 237 181.5 L 236 182.5 L 236 183.5 L 235 184.5 L 235 185.5 L 234 186.5 L 228 199.5 L 226 201.5 L 226 202.5 L 225 203.5 L 221 212.5 L 219 214.5 L 214 225.5 L 212 227.5 L 208 236.5 L 206 238.5 L 206 239.5 L 205 240.5 L 205 241.5 L 204 242.5 L 198 255.5 L 196 257.5 L 190 270.5 L 188 272.5 L 183 283.5 L 181 285.5 L 181 286.5 L 180 287.5 L 180 288.5 L 179 289.5 L 173 302.5 L 171 304.5 L 165 317.5 L 163 319.5 L 163 320.5 L 162 321.5 L 158 330.5 L 156 332.5 L 151 343.5 L 149 345.5 L 149 347.5 L 147 349.5 L 145 354.5 L 143.5 356 Q 141.3 356.8 142 354.5 L 141 353.5 L 138 346.5 L 136 344.5 L 131 333.5 L 129 331.5 Q 129.2 329.7 128 329.5 L 128 327.5 L 126 325.5 L 126 324.5 L 125 323.5 L 121 314.5 L 119 312.5 L 114 301.5 L 112 299.5 L 107 288.5 L 105 286.5 L 100 275.5 L 98 273.5 Q 98.2 271.7 97 271.5 L 97 269.5 L 95 267.5 L 95 266.5 L 93 263.5 L 98 254.5 L 98 253.5 L 100 251.5 L 105 240.5 L 107 238.5 L 113 225.5 L 115 223.5 L 115 222.5 L 116 221.5 L 122 208.5 L 124 206.5 L 130 193.5 L 132 191.5 L 137 180.5 L 139 178.5 L 145 165.5 L 147 163.5 L 153 150.5 L 155 148.5 L 161 135.5 L 163 133.5 L 169 120.5 L 171 118.5 L 176 107.5 L 178 105.5 L 178 103.5 Q 179.2 103.3 179 101.5 L 181 99.5 L 186 88.5 L 188 86.5 L 188 85.5 L 189 84.5 L 193 75.5 L 195 73.5 L 200 62.5 L 202 60.5 Q 201.7 58.7 203 58.5 L 203 56.5 L 205 54.5 L 205 53.5 L 209 46.5 L 207.5 45 L 93.5 45 L 92 46.5 L 90 51.5 L 88 53.5 L 88 54.5 L 86 57.5 L 86 59.5 L 84 61.5 L 84 62.5 L 78 73.5 L 78 76 L 78.5 76 L 157.5 76 Q 158.5 75.6 158 77.5 L 157 78.5 L 152 89.5 L 150 91.5 L 145 102.5 L 142.5 105 L 29.5 105 Q 28.5 105.4 29 103.5 L 33 96.5 L 33 95.5 L 35 93.5 L 41 80.5 L 43 78.5 L 49 65.5 L 51 63.5 L 57 50.5 L 59 48.5 L 64 37.5 L 66 35.5 Q 65.7 33.7 67 33.5 L 67 31.5 L 69 29.5 L 74 18.5 L 75.5 17 L 247.5 17 L 248.5 16 Z " /></svg>