<svg xmlns="http://www.w3.org/2000/svg" viewBox="-275 15 2070 2070" width="512" height="512" preserveAspectRatio="xMidYMid meet">
  <title>OS7 icon</title>
  <rect x="-275" y="15" width="2070" height="2070" rx="360" fill="#0F172A"/>
  <path fill="#FFFFFF" d="M 351.119 279.515 Q 372.268 239.830 417.236 239.686 L 465.951 239.529 L 649.660 239.593 L 1144.882 239.765 Q 1212.270 239.788 1180.417 299.173 L 1145.910 363.506 L 1006.190 625.520 L 620.493 1348.254 Q 606.299 1374.850 620.644 1401.365 L 636.184 1430.090 L 665.124 1484.079 Q 683.993 1519.280 702.597 1483.938 L 722.751 1445.650 L 786.816 1325.740 L 997.324 931.203 L 1198.120 554.553 L 1257.370 443.350 L 1276.441 408.231 Q 1289.610 383.980 1302.325 408.472 L 1316.100 435.005 L 1342.053 483.923 Q 1366.010 529.079 1341.980 574.196 L 1235.260 774.567 L 1176.560 884.802 L 1165.880 904.352 L 690.658 1795.441 Q 683.726 1808.440 676.704 1795.490 L 669.097 1781.460 L 644.512 1735.370 L 580.417 1615.120 L 501.527 1467.000 L 475.675 1419.087 Q 451.812 1374.860 475.462 1330.519 L 776.405 766.291 L 929.477 479.438 L 971.644 399.681 Q 984.540 375.290 956.950 375.429 L 927.061 375.579 L 816.343 375.566 L 476.056 375.715 Q 454.358 375.724 444.167 394.879 L 433.127 415.631 L 406.502 465.778 Q 381.926 512.067 434.335 512.065 L 644.670 512.055 L 716.302 512.078 L 738.029 511.601 Q 758.085 511.160 748.713 528.897 L 696.538 627.647 Q 685.766 648.034 662.708 648.119 L 637.729 648.212 L 544.432 648.164 L 288.608 648.259 L 186.948 648.337 Q 154.346 648.362 169.781 619.646 L 186.502 588.536 L 246.774 475.315 z"/>
</svg>
