<svg xmlns="http://www.w3.org/2000/svg" width="469" height="512" viewBox="37.0 320.0 634.0 692.0">
<path fill="black" d="M644.0,768.0Q620.0,816.0,585.5,860.0Q551.0,904.0,506.5,938.0Q462.0,972.0,408.0,992.0Q354.0,1012.0,291.0,1012.0Q213.0,1012.0,156.0,980.5Q99.0,949.0,68.0,894.0Q37.0,839.0,37.0,768.0Q37.0,683.0,68.0,603.5Q99.0,524.0,154.0,460.0Q209.0,396.0,281.0,358.0Q353.0,320.0,436.0,320.0Q521.0,320.0,580.0,357.0Q639.0,394.0,671.0,451.0L581.0,508.0Q556.0,463.0,515.5,438.5Q475.0,414.0,424.0,414.0Q366.0,414.0,315.5,444.0Q265.0,474.0,227.0,524.0Q189.0,574.0,167.5,635.5Q146.0,697.0,146.0,760.0Q146.0,835.0,187.5,878.5Q229.0,922.0,301.0,922.0Q360.0,922.0,412.0,893.0Q464.0,864.0,504.5,816.0Q545.0,768.0,568.0,711.0L644.0,768.0"/>
</svg>
